<?xml version="1.0" encoding="utf-8"?>
<!-- Generator: Adobe Illustrator 26.3.1, SVG Export Plug-In . SVG Version: 6.00 Build 0)  -->
<svg version="1.2" baseProfile="tiny" id="Layer_1" xmlns="http://www.w3.org/2000/svg" xmlns:xlink="http://www.w3.org/1999/xlink"
	 x="0px" y="0px" viewBox="0 0 150 348" overflow="visible" xml:space="preserve">
<path id="Path_00000060720401245549314830000018392535373578754728_" stroke="#FFFFFF" d="M143.509,300.611l-1.957,1.143
	l-1.961,1.122l-51.22,29.576l-77.948-45.015l-1.961-1.129l-1.967-1.132l-5.388-3.116L1,282.01l5.502-3.173L11.987,282l1.967,1.143
	l1.957,1.135l71.482,41.26c0.304,0.18,0.638,0.261,0.975,0.261c0.347,0,0.682-0.08,0.985-0.261l44.734-25.822l1.957-1.132
	l1.97-1.132l1.864-1.079l1.961-1.143l1.657-0.956l5.502,3.176l-1.657,0.953l-1.957,1.132L143.509,300.611z"/>
<path id="Path_00000061461952859963929080000000605405033655096246_" stroke="#FFFFFF" d="M88.373,343.324L1.001,292.878
	l5.491-3.163l80.902,46.699c0.304,0.171,0.638,0.264,0.975,0.264c0.347,0,0.682-0.094,0.985-0.264l54.154-31.263l5.491,3.166
	L88.373,343.324z"/>
<polygon id="Path_00000131339610093772615840000000150056296184995204_" stroke="#FFFFFF" points="1.001,37.026 61.633,2.018 
	67.228,5.249 69.176,6.381 76.639,10.687 78.586,11.809 80.556,12.952 148.996,52.466 147.329,53.428 145.371,54.56 143.495,55.639 
	141.534,56.771 139.877,57.727 139.572,57.904 137.919,58.856 135.958,59.988 134.081,61.07 132.121,62.21 130.163,63.332 
	88.364,87.473 17.873,46.773 15.903,45.63 10.421,42.467 8.463,41.334 6.496,40.202 1.108,37.085 "/>
<path id="Path_00000089540756517834278200000002871036970808465550_" stroke="#FFFFFF" d="M143.509,278.62l-1.957,1.143
	l-1.961,1.122l-51.22,29.576l-77.948-45.015l-1.961-1.129l-1.967-1.132l-5.388-3.116L1,260.019l5.502-3.173l5.485,3.163l1.967,1.143
	l1.957,1.135l71.482,41.26c0.304,0.181,0.638,0.261,0.975,0.261c0.347,0,0.682-0.08,0.985-0.261l44.734-25.822l1.957-1.132
	l1.97-1.132l1.864-1.079l1.961-1.143l1.657-0.956l5.502,3.176l-1.657,0.953l-1.957,1.132L143.509,278.62z"/>
<path id="Path_00000008867250215574544280000017664454458668106398_" stroke="#FFFFFF" d="M88.373,321.333L1.001,270.887
	l5.491-3.163l80.902,46.699c0.304,0.171,0.638,0.264,0.975,0.264c0.347,0,0.682-0.094,0.985-0.264l54.154-31.263l5.491,3.166
	L88.373,321.333z"/>
<path id="Path_00000038391140473059920820000012570270627978338696_" stroke="#FFFFFF" d="M143.509,256.073l-1.957,1.143
	l-1.961,1.122l-51.22,29.577l-77.948-45.015l-1.961-1.129l-1.967-1.132l-5.388-3.116L1,237.471l5.502-3.173l5.485,3.163l1.967,1.143
	l1.957,1.135l71.482,41.26c0.304,0.181,0.638,0.261,0.975,0.261c0.347,0,0.682-0.08,0.985-0.261l44.734-25.822l1.957-1.132
	l1.97-1.132l1.864-1.079l1.961-1.143l1.657-0.956l5.502,3.176l-1.657,0.953l-1.957,1.132L143.509,256.073z"/>
<path id="Path_00000142154032029729450240000005079840554315207062_" stroke="#FFFFFF" d="M88.373,298.785L1.001,248.34l5.491-3.163
	l80.902,46.699c0.304,0.171,0.638,0.264,0.975,0.264c0.347,0,0.682-0.094,0.985-0.264l54.154-31.263l5.491,3.166L88.373,298.785z"/>
<path id="Path_00000090281887614892547460000006879752527439105158_" stroke="#FFFFFF" d="M143.509,233.525l-1.957,1.143
	l-1.961,1.122l-51.22,29.576l-77.948-45.015l-1.961-1.129l-1.967-1.132l-5.388-3.116L1,214.924l5.502-3.173l5.485,3.163l1.967,1.143
	l1.957,1.135l71.482,41.26c0.304,0.181,0.638,0.261,0.975,0.261c0.347,0,0.682-0.08,0.985-0.261l44.734-25.822l1.957-1.132
	l1.97-1.132l1.864-1.079l1.961-1.143l1.657-0.956l5.502,3.176l-1.657,0.953l-1.957,1.132L143.509,233.525z"/>
<path id="Path_00000076601513757728916130000006739846796369537428_" stroke="#FFFFFF" d="M88.373,276.794L1.001,226.349
	l5.491-3.163l80.902,46.699c0.304,0.171,0.638,0.264,0.975,0.264c0.347,0,0.682-0.094,0.985-0.264l54.154-31.263l5.491,3.166
	L88.373,276.794z"/>
<path id="Path_00000179605744388934265890000015312006528356069780_" stroke="#FFFFFF" d="M143.509,300.611l-1.957,1.143
	l-1.961,1.122l-51.22,29.576l-77.948-45.015l-1.961-1.129l-1.967-1.132l-5.388-3.116L1,282.01l5.502-3.173L11.987,282l1.967,1.143
	l1.957,1.135l71.482,41.26c0.304,0.18,0.638,0.261,0.975,0.261c0.347,0,0.682-0.08,0.985-0.261l44.734-25.822l1.957-1.132
	l1.97-1.132l1.864-1.079l1.961-1.143l1.657-0.956l5.502,3.176l-1.657,0.953l-1.957,1.132L143.509,300.611z"/>
<path id="Path_00000049179892932720458870000007627120929417164931_" stroke="#FFFFFF" d="M88.373,343.324L1.001,292.878
	l5.491-3.163l80.902,46.699c0.304,0.171,0.638,0.264,0.975,0.264c0.347,0,0.682-0.094,0.985-0.264l54.154-31.263l5.491,3.166
	L88.373,343.324z"/>
<path id="Path_00000039109665777062655430000016212691411521669770_" stroke="#FFFFFF" d="M143.509,278.62l-1.957,1.143
	l-1.961,1.122l-51.22,29.576l-77.948-45.015l-1.961-1.129l-1.967-1.132l-5.388-3.116L1,260.019l5.502-3.173l5.485,3.163l1.967,1.143
	l1.957,1.135l71.482,41.26c0.304,0.181,0.638,0.261,0.975,0.261c0.347,0,0.682-0.08,0.985-0.261l44.734-25.822l1.957-1.132
	l1.97-1.132l1.864-1.079l1.961-1.143l1.657-0.956l5.502,3.176l-1.657,0.953l-1.957,1.132L143.509,278.62z"/>
<path id="Path_00000036242681924233425580000018023898417096917390_" stroke="#FFFFFF" d="M88.373,321.333L1.001,270.887
	l5.491-3.163l80.902,46.699c0.304,0.171,0.638,0.264,0.975,0.264c0.347,0,0.682-0.094,0.985-0.264l54.154-31.263l5.491,3.166
	L88.373,321.333z"/>
<path id="Path_00000143606492379080768640000001633713390894154127_" stroke="#FFFFFF" d="M143.509,256.073l-1.957,1.143
	l-1.961,1.122l-51.22,29.577l-77.948-45.015l-1.961-1.129l-1.967-1.132l-5.388-3.116L1,237.471l5.502-3.173l5.485,3.163l1.967,1.143
	l1.957,1.135l71.482,41.26c0.304,0.181,0.638,0.261,0.975,0.261c0.347,0,0.682-0.08,0.985-0.261l44.734-25.822l1.957-1.132
	l1.97-1.132l1.864-1.079l1.961-1.143l1.657-0.956l5.502,3.176l-1.657,0.953l-1.957,1.132L143.509,256.073z"/>
<path id="Path_00000018928189945004293630000008195454979211976330_" stroke="#FFFFFF" d="M88.373,298.785L1.001,248.34l5.491-3.163
	l80.902,46.699c0.304,0.171,0.638,0.264,0.975,0.264c0.347,0,0.682-0.094,0.985-0.264l54.154-31.263l5.491,3.166L88.373,298.785z"/>
<path id="Path_00000175317193882870484780000017489310857964898708_" stroke="#FFFFFF" d="M143.509,233.525l-1.957,1.143
	l-1.961,1.122l-51.22,29.576l-77.948-45.015l-1.961-1.129l-1.967-1.132l-5.388-3.116L1,214.924l5.502-3.173l5.485,3.163l1.967,1.143
	l1.957,1.135l71.482,41.26c0.304,0.181,0.638,0.261,0.975,0.261c0.347,0,0.682-0.08,0.985-0.261l44.734-25.822l1.957-1.132
	l1.97-1.132l1.864-1.079l1.961-1.143l1.657-0.956l5.502,3.176l-1.657,0.953l-1.957,1.132L143.509,233.525z"/>
<path id="Path_00000029735141572485659360000001829508298069843361_" stroke="#FFFFFF" d="M88.373,276.794L1.001,226.349
	l5.491-3.163l80.902,46.699c0.304,0.171,0.638,0.264,0.975,0.264c0.347,0,0.682-0.094,0.985-0.264l54.154-31.263l5.491,3.166
	L88.373,276.794z"/>
<path id="Path_00000013892443622879076460000005806032269360272304_" stroke="#FFFFFF" d="M143.509,122.456l-1.957,1.143
	l-1.961,1.122l-51.22,29.576l-77.948-45.015l-1.961-1.129l-1.967-1.132l-5.388-3.116L1,103.855l5.502-3.173l5.485,3.163l1.967,1.143
	l1.957,1.135l71.482,41.26c0.304,0.181,0.638,0.261,0.975,0.261c0.347,0,0.682-0.08,0.985-0.261l44.734-25.822l1.957-1.132
	l1.97-1.132l1.864-1.079l1.961-1.143l1.657-0.956l5.502,3.176l-1.657,0.953l-1.957,1.132L143.509,122.456z"/>
<path id="Path_00000099621698978070148400000010177668138713611194_" stroke="#FFFFFF" d="M88.373,165.169L1.001,114.723
	l5.491-3.163l80.902,46.699c0.304,0.171,0.638,0.264,0.975,0.264c0.347,0,0.682-0.094,0.985-0.264l54.154-31.263l5.491,3.166
	L88.373,165.169z"/>
<path id="Path_00000022537589433554929460000001081206507909300128_" stroke="#FFFFFF" d="M143.509,100.465l-1.957,1.143
	l-1.961,1.122l-51.22,29.576L10.423,87.292l-1.961-1.129l-1.967-1.132l-5.388-3.116L1,81.864l5.502-3.173l5.485,3.163l1.967,1.143
	l1.957,1.135l71.482,41.26c0.304,0.181,0.638,0.261,0.975,0.261c0.347,0,0.682-0.08,0.985-0.261l44.734-25.822l1.957-1.132
	l1.97-1.132l1.864-1.079l1.961-1.143l1.657-0.956l5.502,3.176l-1.657,0.953l-1.957,1.132L143.509,100.465z"/>
<path id="Path_00000033354813348417641700000013181558553629069457_" stroke="#FFFFFF" d="M88.373,143.178L1.001,92.732l5.491-3.163
	l80.902,46.699c0.304,0.171,0.638,0.264,0.975,0.264c0.347,0,0.682-0.094,0.985-0.264l54.154-31.263l5.491,3.166L88.373,143.178z"/>
<path id="Path_00000022558850075747270630000004521103848246660488_" stroke="#FFFFFF" d="M143.509,77.918l-1.957,1.143
	l-1.961,1.122l-51.22,29.576L10.423,64.745l-1.961-1.129l-1.967-1.132l-5.388-3.116L1,59.316l5.502-3.173l5.485,3.163l1.967,1.143
	l1.957,1.135l71.482,41.26c0.304,0.181,0.638,0.261,0.975,0.261c0.347,0,0.682-0.08,0.985-0.261l44.734-25.822l1.957-1.132
	l1.97-1.132l1.864-1.079l1.961-1.143l1.657-0.956l5.502,3.176l-1.657,0.953l-1.957,1.132L143.509,77.918z"/>
<path id="Path_00000144337727906246163500000013104225212814350984_" stroke="#FFFFFF" d="M88.373,120.63L1.001,70.185l5.491-3.163
	l80.902,46.699c0.304,0.171,0.638,0.264,0.975,0.264c0.347,0,0.682-0.094,0.985-0.264l54.154-31.263L149,85.623L88.373,120.63z"/>
<path id="Path_00000144339805480477657130000008253471635922075281_" stroke="#FFFFFF" d="M88.373,98.639L1.001,48.194l5.491-3.163
	l80.902,46.699c0.304,0.171,0.638,0.264,0.975,0.264c0.347,0,0.682-0.094,0.985-0.264l54.154-31.263L149,63.633L88.373,98.639z"/>
<path id="Path_00000078020709139850585530000009184636480863463100_" stroke="#FFFFFF" d="M143.509,122.456l-1.957,1.143
	l-1.961,1.122l-51.22,29.576l-77.948-45.015l-1.961-1.129l-1.967-1.132l-5.388-3.116L1,103.855l5.502-3.173l5.485,3.163l1.967,1.143
	l1.957,1.135l71.482,41.26c0.304,0.181,0.638,0.261,0.975,0.261c0.347,0,0.682-0.08,0.985-0.261l44.734-25.822l1.957-1.132
	l1.97-1.132l1.864-1.079l1.961-1.143l1.657-0.956l5.502,3.176l-1.657,0.953l-1.957,1.132L143.509,122.456z"/>
<path id="Path_00000027563945506911709240000008534665697301612684_" stroke="#FFFFFF" d="M88.373,165.169L1.001,114.723
	l5.491-3.163l80.902,46.699c0.304,0.171,0.638,0.264,0.975,0.264c0.347,0,0.682-0.094,0.985-0.264l54.154-31.263l5.491,3.166
	L88.373,165.169z"/>
<path id="Path_00000021113335839114694360000004111651260550223000_" stroke="#FFFFFF" d="M143.509,100.465l-1.957,1.143
	l-1.961,1.122l-51.22,29.576L10.423,87.292l-1.961-1.129l-1.967-1.132l-5.388-3.116L1,81.864l5.502-3.173l5.485,3.163l1.967,1.143
	l1.957,1.135l71.482,41.26c0.304,0.181,0.638,0.261,0.975,0.261c0.347,0,0.682-0.08,0.985-0.261l44.734-25.822l1.957-1.132
	l1.97-1.132l1.864-1.079l1.961-1.143l1.657-0.956l5.502,3.176l-1.657,0.953l-1.957,1.132L143.509,100.465z"/>
<path id="Path_00000152966472507612376190000016788023406522180250_" stroke="#FFFFFF" d="M88.373,143.178L1.001,92.732l5.491-3.163
	l80.902,46.699c0.304,0.171,0.638,0.264,0.975,0.264c0.347,0,0.682-0.094,0.985-0.264l54.154-31.263l5.491,3.166L88.373,143.178z"/>
<path id="Path_00000089550071594770062860000016860059577729629370_" stroke="#FFFFFF" d="M143.509,77.918l-1.957,1.143
	l-1.961,1.122l-51.22,29.576L10.423,64.745l-1.961-1.129l-1.967-1.132l-5.388-3.116L1,59.316l5.502-3.173l5.485,3.163l1.967,1.143
	l1.957,1.135l71.482,41.26c0.304,0.181,0.638,0.261,0.975,0.261c0.347,0,0.682-0.08,0.985-0.261l44.734-25.822l1.957-1.132
	l1.97-1.132l1.864-1.079l1.961-1.143l1.657-0.956l5.502,3.176l-1.657,0.953l-1.957,1.132L143.509,77.918z"/>
<path id="Path_00000143601570604910568730000015992211882810878870_" stroke="#FFFFFF" d="M88.373,120.63L1.001,70.185l5.491-3.163
	l80.902,46.699c0.304,0.171,0.638,0.264,0.975,0.264c0.347,0,0.682-0.094,0.985-0.264l54.154-31.263L149,85.623L88.373,120.63z"/>
<path id="Path_00000074434451984602185020000007298494892326519185_" stroke="#FFFFFF" d="M88.373,98.639L1.001,48.194l5.491-3.163
	l80.902,46.699c0.304,0.171,0.638,0.264,0.975,0.264c0.347,0,0.682-0.094,0.985-0.264l54.154-31.263L149,63.633L88.373,98.639z"/>
<path id="Path_00000047748749487800629840000011574273471685641641_" stroke="#FFFFFF" d="M143.509,211.534l-1.957,1.143
	l-1.961,1.122l-51.22,29.576l-77.948-45.015l-1.961-1.129L6.495,196.1l-5.388-3.116L1,192.933l5.502-3.173l5.485,3.163l1.967,1.143
	l1.957,1.135l71.482,41.26c0.304,0.181,0.638,0.261,0.975,0.261c0.347,0,0.682-0.08,0.985-0.261l44.734-25.822l1.957-1.132
	l1.97-1.132l1.864-1.079l1.961-1.143l1.657-0.956l5.502,3.176l-1.657,0.953l-1.957,1.132L143.509,211.534z"/>
<path id="Path_00000022519732100429935180000011425286744452191898_" stroke="#FFFFFF" d="M88.373,254.247L1.001,203.801
	l5.491-3.163l80.902,46.699c0.304,0.171,0.638,0.264,0.975,0.264c0.347,0,0.682-0.094,0.985-0.264l54.154-31.263L149,219.24
	L88.373,254.247z"/>
<path id="Path_00000122693974270254182400000013699408001459736244_" stroke="#FFFFFF" d="M143.509,189.543l-1.957,1.143
	l-1.961,1.122l-51.22,29.576L10.423,176.37l-1.961-1.129l-1.967-1.132l-5.388-3.116L1,170.942l5.502-3.173l5.485,3.163l1.967,1.143
	l1.957,1.135l71.482,41.26c0.304,0.181,0.638,0.261,0.975,0.261c0.347,0,0.682-0.08,0.985-0.261l44.734-25.822l1.957-1.132
	l1.97-1.132l1.864-1.079l1.961-1.143l1.657-0.956l5.502,3.176l-1.657,0.953l-1.957,1.132L143.509,189.543z"/>
<path id="Path_00000118394154872256034790000010732293444193281416_" stroke="#FFFFFF" d="M88.373,232.256L1.001,181.81l5.491-3.163
	l80.902,46.699c0.304,0.171,0.638,0.264,0.975,0.264c0.347,0,0.682-0.094,0.985-0.264l54.154-31.263l5.491,3.166L88.373,232.256z"/>
<path id="Path_00000024705044043236117100000000249286595223495588_" stroke="#FFFFFF" d="M143.509,166.995l-1.957,1.143
	l-1.961,1.122l-51.22,29.576l-77.948-45.015l-1.961-1.129l-1.967-1.132l-5.388-3.116L1,148.394l5.502-3.173l5.485,3.163l1.967,1.143
	l1.957,1.135l71.482,41.26c0.304,0.181,0.638,0.261,0.975,0.261c0.347,0,0.682-0.08,0.985-0.261l44.734-25.822l1.957-1.132
	l1.97-1.132l1.864-1.079l1.961-1.143l1.657-0.956l5.502,3.176l-1.657,0.953l-1.957,1.132L143.509,166.995z"/>
<path id="Path_00000109749324302943830690000003410617953453597110_" stroke="#FFFFFF" d="M88.373,209.708L1.001,159.262
	l5.491-3.163l80.902,46.699c0.304,0.171,0.638,0.264,0.975,0.264c0.347,0,0.682-0.094,0.985-0.264l54.154-31.263l5.491,3.166
	L88.373,209.708z"/>
<path id="Path_00000077287459444168890030000017314649518916854923_" stroke="#FFFFFF" d="M143.509,144.447l-1.957,1.143
	l-1.961,1.122l-51.22,29.576l-77.948-45.015l-1.961-1.129l-1.967-1.132l-5.388-3.116L1,125.846l5.502-3.173l5.485,3.163l1.967,1.143
	l1.957,1.135l71.482,41.26c0.304,0.181,0.638,0.261,0.975,0.261c0.347,0,0.682-0.08,0.985-0.261l44.734-25.822l1.957-1.132
	l1.97-1.132l1.864-1.079l1.961-1.143l1.657-0.956l5.502,3.176l-1.657,0.953l-1.957,1.132L143.509,144.447z"/>
<path id="Path_00000150060867174481541510000003730150614880067493_" stroke="#FFFFFF" d="M88.373,187.717L1.001,137.271
	l5.491-3.163l80.902,46.699c0.304,0.171,0.638,0.264,0.975,0.264c0.347,0,0.682-0.094,0.985-0.264l54.154-31.263L149,152.71
	L88.373,187.717z"/>
<path id="Path_00000035509603989897126830000006146495338756197015_" stroke="#FFFFFF" d="M143.509,211.534l-1.957,1.143
	l-1.961,1.122l-51.22,29.576l-77.948-45.015l-1.961-1.129L6.495,196.1l-5.388-3.116L1,192.933l5.502-3.173l5.485,3.163l1.967,1.143
	l1.957,1.135l71.482,41.26c0.304,0.181,0.638,0.261,0.975,0.261c0.347,0,0.682-0.08,0.985-0.261l44.734-25.822l1.957-1.132
	l1.97-1.132l1.864-1.079l1.961-1.143l1.657-0.956l5.502,3.176l-1.657,0.953l-1.957,1.132L143.509,211.534z"/>
<path id="Path_00000013899269524644522410000003902737487836252034_" stroke="#FFFFFF" d="M88.373,254.247L1.001,203.801
	l5.491-3.163l80.902,46.699c0.304,0.171,0.638,0.264,0.975,0.264c0.347,0,0.682-0.094,0.985-0.264l54.154-31.263L149,219.24
	L88.373,254.247z"/>
<path id="Path_00000123433371963545224390000005809868652517209775_" stroke="#FFFFFF" d="M143.509,189.543l-1.957,1.143
	l-1.961,1.122l-51.22,29.576L10.423,176.37l-1.961-1.129l-1.967-1.132l-5.388-3.116L1,170.942l5.502-3.173l5.485,3.163l1.967,1.143
	l1.957,1.135l71.482,41.26c0.304,0.181,0.638,0.261,0.975,0.261c0.347,0,0.682-0.08,0.985-0.261l44.734-25.822l1.957-1.132
	l1.97-1.132l1.864-1.079l1.961-1.143l1.657-0.956l5.502,3.176l-1.657,0.953l-1.957,1.132L143.509,189.543z"/>
<path id="Path_00000014636007795114721570000015499786516659193021_" stroke="#FFFFFF" d="M88.373,232.256L1.001,181.81l5.491-3.163
	l80.902,46.699c0.304,0.171,0.638,0.264,0.975,0.264c0.347,0,0.682-0.094,0.985-0.264l54.154-31.263l5.491,3.166L88.373,232.256z"/>
<path id="Path_00000115506509781516114300000010550261026823004549_" stroke="#FFFFFF" d="M143.509,166.995l-1.957,1.143
	l-1.961,1.122l-51.22,29.576l-77.948-45.015l-1.961-1.129l-1.967-1.132l-5.388-3.116L1,148.394l5.502-3.173l5.485,3.163l1.967,1.143
	l1.957,1.135l71.482,41.26c0.304,0.181,0.638,0.261,0.975,0.261c0.347,0,0.682-0.08,0.985-0.261l44.734-25.822l1.957-1.132
	l1.97-1.132l1.864-1.079l1.961-1.143l1.657-0.956l5.502,3.176l-1.657,0.953l-1.957,1.132L143.509,166.995z"/>
<path id="Path_00000130609177996739520440000009186852784139283615_" stroke="#FFFFFF" d="M88.373,209.708L1.001,159.262
	l5.491-3.163l80.902,46.699c0.304,0.171,0.638,0.264,0.975,0.264c0.347,0,0.682-0.094,0.985-0.264l54.154-31.263l5.491,3.166
	L88.373,209.708z"/>
<path id="Path_00000005265937722282996490000014238907593893105564_" stroke="#FFFFFF" d="M143.509,144.447l-1.957,1.143
	l-1.961,1.122l-51.22,29.576l-77.948-45.015l-1.961-1.129l-1.967-1.132l-5.388-3.116L1,125.846l5.502-3.173l5.485,3.163l1.967,1.143
	l1.957,1.135l71.482,41.26c0.304,0.181,0.638,0.261,0.975,0.261c0.347,0,0.682-0.08,0.985-0.261l44.734-25.822l1.957-1.132
	l1.97-1.132l1.864-1.079l1.961-1.143l1.657-0.956l5.502,3.176l-1.657,0.953l-1.957,1.132L143.509,144.447z"/>
<path id="Path_00000014630065595877573500000014163007749915018913_" stroke="#FFFFFF" d="M88.373,187.717L1.001,137.271
	l5.491-3.163l80.902,46.699c0.304,0.171,0.638,0.264,0.975,0.264c0.347,0,0.682-0.094,0.985-0.264l54.154-31.263L149,152.71
	L88.373,187.717z"/>
</svg>
