<?xml version="1.0" encoding="utf-8"?>
<!-- Generator: Adobe Illustrator 26.3.1, SVG Export Plug-In . SVG Version: 6.00 Build 0)  -->
<svg version="1.2" baseProfile="tiny" id="Layer_1" xmlns="http://www.w3.org/2000/svg" xmlns:xlink="http://www.w3.org/1999/xlink"
	 x="0px" y="0px" viewBox="0 0 150 111" overflow="visible" xml:space="preserve">
<path id="Path" stroke="#FFFFFF" d="M141.708,65.752l-1.886,1.101l-1.889,1.081L88.571,96.438L13.45,53.057l-1.889-1.088
	l-1.896-1.091l-5.192-3.003l-0.104-0.049l5.303-3.058l5.286,3.048l1.896,1.101l1.886,1.094l68.889,39.763
	c0.293,0.174,0.615,0.252,0.94,0.252c0.334,0,0.657-0.078,0.949-0.252l43.111-24.885l1.886-1.091l1.899-1.091l1.796-1.04
	l1.889-1.101l1.597-0.921l5.303,3.061l-1.597,0.918l-1.886,1.091L141.708,65.752z"/>
<path id="Path_00000158721152498267805610000017622931288127737752_" stroke="#FFFFFF" d="M88.572,106.915L4.37,58.299l5.292-3.048
	l77.967,45.005c0.293,0.165,0.615,0.255,0.94,0.255c0.334,0,0.657-0.09,0.949-0.255l52.189-30.129L147,73.178L88.572,106.915z"/>
<polygon id="Path_00000120532888464914268670000002989567057965740679_" stroke="#FFFFFF" points="4.37,37.342 62.802,3.605 
	68.194,6.718 70.071,7.809 77.263,11.959 79.14,13.04 81.039,14.142 146.996,52.222 145.389,53.15 143.503,54.241 141.694,55.28 
	139.805,56.371 138.208,57.292 137.914,57.463 136.321,58.381 134.431,59.472 132.622,60.515 130.733,61.613 128.847,62.694 
	88.563,85.959 20.629,46.736 18.731,45.634 13.448,42.586 11.561,41.494 9.665,40.403 4.473,37.4 "/>
</svg>
